<svg width="1000" height="1000" xmlns="http://www.w3.org/2000/svg" xml:space="preserve" enable-background="new 0 0 1000 1000" version="1.1">
 <metadata>Svg Vector Icons : http://www.onlinewebfonts.com/icon</metadata>

 <g>
  <title>Layer 1</title>
  <path fill="#ffffff" stroke="null" id="svg_2" d="m407.84853,196.62533l0,32.2098l-91.79073,0l0,-99.8351l91.79073,0l0,35.33918l-52.43971,0l0,32.28612l52.43971,0zm94.34048,-32.28612l36.6313,0l0,-35.33918l-91.79073,0c0,0 0,17.70776 0,35.33918c12.23876,10.99102 18.69811,16.33388 36.46132,32.28612c-10.36895,0 -36.46132,0 -36.46132,0l0,32.2098l91.79073,0l0,-32.2098l-36.6313,-32.28612zm130.03687,0l36.6313,0l0,-35.33918l-91.79073,0c0,0 0,17.70776 0,35.33918c12.23876,10.99102 18.69811,16.33388 36.46132,32.28612c-10.36895,0 -36.46132,0 -36.46132,0l0,32.2098l91.79073,0l0,-32.2098l-36.6313,-32.28612zm157.57409,111.97102l-55.75437,542.30001l-241.54562,58.3898l-241.54562,-58.3898l-55.75437,-542.30001l594.59997,0zm-112.35866,110.21551l-185.1963,0l-188.42598,0l9.00909,65.48816l179.41689,0l10.11398,0l-10.11398,3.74l-172.87255,64.64857l5.69443,64.03796l167.17812,0.45796l89.58096,0.22898l-5.77942,85.33306l-83.88653,21.21878l0,-0.07633l-0.67993,0.15265l-80.99682,-18.39469l-4.9295,-52.97061l-0.25497,0l-75.13242,0l-0.25497,0l9.859,102.27755l152.38962,40.45306l0,-0.07633l0.25497,0.07633l151.70968,-39.53714l19.63302,-203.1049l-171.51269,0l-0.42496,0l0.42496,-0.15265l177.80205,-68.23592l7.39425,-65.56449z"/>
 </g>
</svg>